<svg xmlns="http://www.w3.org/2000/svg" width="28" height="28" viewBox="0 0 28 28">
  <path id="add-image" d="M34,5.921V8.868H29.579v4.421H26.632V8.868H22.211V5.921h4.421V1.5h2.947V5.921ZM21.474,16.237a2.212,2.212,0,1,0-2.212-2.211,2.212,2.212,0,0,0,2.212,2.211ZM26.632,21l-.756-.84a2.947,2.947,0,0,0-4.386,0l-.966,1.076-7.155-7.949L8.947,18.2V8.868H19.263V5.921H8.947A2.947,2.947,0,0,0,6,8.868V26.553A2.947,2.947,0,0,0,8.947,29.5H26.632a2.947,2.947,0,0,0,2.947-2.947V16.237H26.632Z" transform="translate(-6 -1.5)" fill="#7b8298"/>
</svg>
