<svg xmlns="http://www.w3.org/2000/svg" xmlns:xlink="http://www.w3.org/1999/xlink" width="92" height="92" viewBox="0 0 92 92"><defs><style>.a{fill:#00c993;stroke:rgba(255,255,255,0.4);stroke-width:2px;}.b{fill:none;}.c{fill:#fff;}.d{stroke:none;}.e{filter:url(#a);}</style><filter id="a" x="0" y="0" width="92" height="92" filterUnits="userSpaceOnUse"><feOffset dy="6" input="SourceAlpha"/><feGaussianBlur stdDeviation="8" result="b"/><feFlood flood-opacity="0.071"/><feComposite operator="in" in2="b"/><feComposite in="SourceGraphic"/></filter></defs><g transform="translate(24 24)"><g class="e" transform="matrix(1, 0, 0, 1, -24, -24)"><g class="a" transform="translate(24 24)"><rect class="d" width="44" height="44" rx="22"/><rect class="b" x="1" y="1" width="42" height="42" rx="21"/></g></g><g transform="translate(12.901 12.4)"><g transform="translate(-0.232 -0.232)"><rect class="b" width="18" height="18" transform="translate(0.331 0.332)"/><rect class="b" width="18" height="18" transform="translate(0.331 0.332)"/></g><g transform="translate(2.977 0.698)"><ellipse class="c" cx="3" cy="2.5" rx="3" ry="2.5" transform="translate(3.123 3.402)"/><path class="c" d="M20.1,8.03a6.049,6.049,0,1,0-9.451,4.99v4.8a.794.794,0,0,0,.756.794.567.567,0,0,0,.416-.151l2.23-1.739,2.23,1.739a.567.567,0,0,0,.416.151.794.794,0,0,0,.756-.794v-4.8A6.049,6.049,0,0,0,20.1,8.03Zm-10.585,0a4.537,4.537,0,1,1,4.537,4.537A4.537,4.537,0,0,1,9.511,8.03Zm6.427,8.242-1.663-1.285a.34.34,0,0,0-.454,0l-1.663,1.285v-2.5a6.058,6.058,0,0,0,3.781,0Z" transform="translate(-7.998 -1.97)"/></g></g></g></svg>
