<svg xmlns="http://www.w3.org/2000/svg" width="18" height="18" viewBox="0 0 18 18">
  <g id="calendar" transform="translate(0 0)">
    <path id="Union_1" data-name="Union 1" d="M2.109,18A2.111,2.111,0,0,1,0,15.891V3.515A2.111,2.111,0,0,1,2.109,1.406h.844V0H4.359V1.406h9.282V0h1.406V1.406h.844A2.111,2.111,0,0,1,18,3.515V15.891A2.111,2.111,0,0,1,15.891,18Zm-.7-2.109a.7.7,0,0,0,.7.7H15.891a.7.7,0,0,0,.7-.7V6.61H1.406Zm0-12.375V5.2H16.594V3.515a.7.7,0,0,0-.7-.7h-.844V4.218H13.641V2.812H4.359V4.218H2.953V2.812H2.109A.7.7,0,0,0,1.406,3.515Zm9.651,11.523V13.711h1.327v1.327Zm-2.653,0V13.711H9.731v1.327Zm-3.1,0V13.711H7.076v1.327Zm-2.654,0V13.711H3.98v1.327Zm11.058-2.654V11.057H15.48v1.327Zm-2.654,0V11.057h1.327v1.327Zm-2.653,0V11.057H9.731v1.327Zm-3.1,0V11.057H7.076v1.327Zm-2.654,0V11.057H3.98v1.327Zm11.058-3.1V7.961H15.48V9.288Zm-2.654,0V7.961h1.327V9.288Zm-2.653,0V7.961H9.731V9.288Zm-3.1,0V7.961H7.076V9.288Zm-2.654,0V7.961H3.98V9.288Z" transform="translate(0 0)" fill="#0068ff"/>
  </g>
</svg>
