<svg xmlns="http://www.w3.org/2000/svg" width="20" height="20" viewBox="0 0 20 20">
  <g id="speakerphone" transform="translate(-2.251 -2.25)">
    <path id="Path_2727" data-name="Path 2727" d="M4.008,10.464A4.494,4.494,0,0,1,6.747,6.328H6.4a3.818,3.818,0,0,0-3.665,3.4.7.7,0,0,0-.483.728.662.662,0,0,0,.525.719,3.72,3.72,0,0,0,3.15,3.109h0a.952.952,0,0,1,.19.04c.049.009.1.018.149.031a4.474,4.474,0,0,1-2.26-3.891Z" transform="translate(0 -1.457)" fill="#fff"/>
    <path id="Path_2728" data-name="Path 2728" d="M23.032,4.884c-.049-.13-.1-.25-.156-.371a4.912,4.912,0,0,0-1.042-1.545,2.436,2.436,0,0,0-1.667-.718,2.227,2.227,0,0,0-1.074.286h0c-.053.031-.107.058-.16.09a15.833,15.833,0,0,1-7.246,2.206c-.29.018-.579.009-.869.009H8.929a4.511,4.511,0,0,0-.5,7.931c.579.486,1.858.523,1.783,1.067a10.208,10.208,0,0,1-.347,1.371A25.727,25.727,0,0,0,8.738,21.67c0,.09,0,.165.009.295s.1.286.379.286h3.422c.294,0,.432-.147.414-.415-.009-.085-.027-.192-.035-.29A24.466,24.466,0,0,1,12.78,17.9a15.794,15.794,0,0,1,.312-2.737,5.038,5.038,0,0,1,.539-1.353A19.875,19.875,0,0,1,18.76,15.1s.321.152.45.232a2.175,2.175,0,0,0,.963.228,1.09,1.09,0,0,0,.12,0,2.733,2.733,0,0,0,1.546-.871,4.783,4.783,0,0,0,1.042-1.545c.053-.125.107-.25.156-.384a11.23,11.23,0,0,0,.66-3.934,11.155,11.155,0,0,0-.664-3.939ZM22,12.766c-.347.826-.811,1.487-1.314,1.487s-.963-.657-1.31-1.487a10.616,10.616,0,0,1-.664-3.934,10.56,10.56,0,0,1,.669-3.948c.347-.822.807-1.317,1.305-1.317s.958.5,1.31,1.317a10.56,10.56,0,0,1,.669,3.948A10.616,10.616,0,0,1,22,12.766Z" transform="translate(-1.446)" fill="#fff"/>
  </g>
</svg>
