<svg xmlns="http://www.w3.org/2000/svg" width="21" height="20" viewBox="0 0 21 20">
  <g id="noun_channel_1181717" transform="translate(-15.9 -17)">
    <g id="Group_3046" data-name="Group 3046" transform="translate(15.9 17)">
      <path id="Path_2719" data-name="Path 2719" d="M25.793,17h1.126q1.777,0,3.554.088c.474.029.948.059,1.422.118.385.059.8.059,1.185.147a4.645,4.645,0,0,1,2.073,1.059A4.4,4.4,0,0,1,36.6,21.384c.03.441.118.883.148,1.324.089.883.118,1.795.148,2.707v.706a3.917,3.917,0,0,0-.03.588,11.3,11.3,0,0,1-.089,1.412c-.059.588-.148,1.177-.207,1.765a4.516,4.516,0,0,1-4.384,4A9.079,9.079,0,0,1,33.583,35.1a1.548,1.548,0,0,1,.326.412.962.962,0,0,1,.03.853,1.1,1.1,0,0,1-.592.559,1.114,1.114,0,0,1-.918-.088,2.736,2.736,0,0,1-.415-.412,8.5,8.5,0,0,0-2.666-1.795,7.866,7.866,0,0,0-4.858-.441,6.745,6.745,0,0,0-2.221.942,6.833,6.833,0,0,0-1.6,1.324,3.229,3.229,0,0,1-.3.324,1.026,1.026,0,0,1-1.037.147,1,1,0,0,1-.385-1.53,7.911,7.911,0,0,1,1.54-1.442,4.862,4.862,0,0,1-1.57-.353,4.568,4.568,0,0,1-1.866-1.471,4.331,4.331,0,0,1-.859-2.236c-.03-.235-.059-.441-.089-.677a14.563,14.563,0,0,1-.148-1.559c-.059-.883-.059-1.736-.059-2.619a22.6,22.6,0,0,1,.178-2.825c.03-.294.089-.588.118-.883a4.381,4.381,0,0,1,1.333-2.736,4.616,4.616,0,0,1,2.37-1.236,7.93,7.93,0,0,1,.829-.088q1.066-.132,2.133-.177c.918-.059,1.925-.059,2.932-.088m-1.214,2.06c-.711,0-1.392.029-2.1.059a13.633,13.633,0,0,0-1.54.147,4.9,4.9,0,0,0-.918.118,2.451,2.451,0,0,0-1.866,2.148c-.03.441-.118.883-.178,1.324-.089.912-.118,1.854-.118,2.8a22.931,22.931,0,0,0,.237,3.5c.059.294.059.618.118.942a2.544,2.544,0,0,0,.5.971,2.4,2.4,0,0,0,1.807.853H31.983a2.315,2.315,0,0,0,1.244-.324,2.375,2.375,0,0,0,1.185-1.53,5.917,5.917,0,0,0,.118-.765c.059-.383.118-.794.148-1.177a21.865,21.865,0,0,0,.089-2.8,27.639,27.639,0,0,0-.207-3.148,4.78,4.78,0,0,1-.059-.647,2.335,2.335,0,0,0-.267-.912,2.51,2.51,0,0,0-1.6-1.236A3.359,3.359,0,0,0,32.1,19.3c-.355-.029-.681-.088-1.037-.118-1.037-.088-2.1-.118-3.14-.147C26.829,19.03,25.7,19.03,24.578,19.06Z" transform="translate(-15.9 -17)" fill="#fff"/>
      <path id="Path_2720" data-name="Path 2720" d="M40.3,36.385c1.154-.061,2.339-.061,3.493-.03q.911,0,1.823.091a5.83,5.83,0,0,1,.668.091,7.286,7.286,0,0,1,.152,1.4c.03.7.03,1.4,0,2.066a9.465,9.465,0,0,1-.152,1.337,15.918,15.918,0,0,1-1.7.061c-.911,0-1.823,0-2.734-.03a4.986,4.986,0,0,1-.7-.061c-.729.547-1.428,1.094-2.157,1.64v-.213c-.091-1.154-.091-2.339-.091-3.493,0-.911,0-1.823.091-2.764C39.416,36.445,39.842,36.415,40.3,36.385Z" transform="translate(-32.182 -30.732)" fill="#fff"/>
    </g>
  </g>
</svg>
