<svg xmlns="http://www.w3.org/2000/svg" xmlns:xlink="http://www.w3.org/1999/xlink" width="92" height="92" viewBox="0 0 92 92"><defs><style>.a{fill:#ff0062;stroke:rgba(255,255,255,0.4);stroke-width:2px;}.b{fill:none;}.c{fill:#fff;}.d{stroke:none;}.e{filter:url(#a);}</style><filter id="a" x="0" y="0" width="92" height="92" filterUnits="userSpaceOnUse"><feOffset dy="6" input="SourceAlpha"/><feGaussianBlur stdDeviation="8" result="b"/><feFlood flood-opacity="0.071"/><feComposite operator="in" in2="b"/><feComposite in="SourceGraphic"/></filter></defs><g transform="translate(24 24)"><g class="e" transform="matrix(1, 0, 0, 1, -24, -24)"><g class="a" transform="translate(24 24)"><rect class="d" width="44" height="44" rx="22"/><rect class="b" x="1" y="1" width="42" height="42" rx="21"/></g></g><g transform="translate(13.514 14.015)"><rect class="b" width="16" height="16" transform="translate(0.486 0.486)"/><g transform="translate(0.687 0.687)"><path class="c" d="M8.869,8.869H2.687A.687.687,0,0,1,2,8.182H2A6.216,6.216,0,0,1,8.182,2h0a.687.687,0,0,1,.687.687ZM3.408,7.5H7.5V3.408A4.877,4.877,0,0,0,3.408,7.5Z" transform="translate(-2 -2)"/><path class="c" d="M16.182,22.364a6.148,6.148,0,0,1-4.568-2.026A6.354,6.354,0,0,1,10,16.044h0a.55.55,0,0,1,.55-.55h4.946v-4.98A.515.515,0,0,1,16.01,10h0a6.526,6.526,0,0,1,4.431,1.683,6.182,6.182,0,0,1-3.984,10.681Zm-4.774-5.5A4.877,4.877,0,0,0,12.85,19.65a4.74,4.74,0,0,0,3.572,1.339,4.843,4.843,0,0,0,4.568-4.568A4.74,4.74,0,0,0,19.65,12.85a4.877,4.877,0,0,0-2.782-1.442v4.774a.687.687,0,0,1-.687.687Z" transform="translate(-7.252 -7.252)"/></g></g></g></svg>
