<svg xmlns="http://www.w3.org/2000/svg" width="21" height="21" viewBox="0 0 21 21">
  <g id="Layer_2" data-name="Layer 2" transform="translate(0.362)">
    <g id="trash-2">
      <rect id="Rectangle_210" data-name="Rectangle 210" width="21" height="21" transform="translate(-0.362)" fill="#eb0000" opacity="0"/>
      <path id="Path_2746" data-name="Path 2746" d="M18.845,5.546H14.412V4.066A2.146,2.146,0,0,0,12.2,2H9.536A2.146,2.146,0,0,0,7.32,4.066V5.546H2.887a.887.887,0,1,0,0,1.773h.887v9.753a2.66,2.66,0,0,0,2.66,2.66H15.3a2.66,2.66,0,0,0,2.66-2.66V7.319h.887a.887.887,0,1,0,0-1.773ZM9.093,4.066c0-.142.186-.293.443-.293H12.2c.257,0,.443.151.443.293V5.546H9.093Zm7.093,13.006a.887.887,0,0,1-.887.887H6.433a.887.887,0,0,1-.887-.887V7.319H16.185Z" transform="translate(-0.083 -0.227)" fill="#eb0000"/>
      <path id="Path_2747" data-name="Path 2747" d="M8.887,16.32a.887.887,0,0,0,.887-.887V11.887a.887.887,0,0,0-1.773,0v3.546A.887.887,0,0,0,8.887,16.32Z" transform="translate(-0.763 -1.247)" fill="#eb0000"/>
      <path id="Path_2748" data-name="Path 2748" d="M14.887,16.32a.887.887,0,0,0,.887-.887V11.887a.887.887,0,0,0-1.773,0v3.546A.887.887,0,0,0,14.887,16.32Z" transform="translate(-1.444 -1.247)" fill="#eb0000"/>
    </g>
  </g>
</svg>
