<svg id="Layer_2" data-name="Layer 2" xmlns="http://www.w3.org/2000/svg" width="21" height="21" viewBox="0 0 21 21">
  <g id="edit-2">
    <rect id="Rectangle_209" data-name="Rectangle 209" width="21" height="21" fill="#0068ff" opacity="0"/>
    <path id="Path_2744" data-name="Path 2744" d="M17.3,20H4.887a.887.887,0,1,0,0,1.773H17.3A.887.887,0,0,0,17.3,20Z" transform="translate(-0.454 -2.268)" fill="#0068ff"/>
    <path id="Path_2745" data-name="Path 2745" d="M4.886,16.192h.08l3.7-.337a1.773,1.773,0,0,0,1.073-.505L17.715,7.37a1.7,1.7,0,0,0-.062-2.4L15.224,2.539a1.773,1.773,0,0,0-2.358-.062L4.886,10.456a1.773,1.773,0,0,0-.505,1.073L4,15.226a.884.884,0,0,0,.887.966ZM13.991,3.78l2.42,2.42L14.639,7.929,12.263,5.553ZM6.1,11.679l4.992-4.956,2.394,2.394L8.521,14.082l-2.66.248Z" transform="translate(-0.453 -0.233)" fill="#0068ff"/>
  </g>
</svg>
