<svg xmlns="http://www.w3.org/2000/svg" width="23" height="30" viewBox="0 0 23 30">
  <g id="noun_Excel_File_3612946" data-name="noun_Excel File_3612946" transform="translate(-73.5)">
    <rect id="Rectangle_854" data-name="Rectangle 854" width="2.418" height="1.358" transform="translate(79.515 12.523)" fill="#00c993"/>
    <rect id="Rectangle_855" data-name="Rectangle 855" width="2.418" height="1.479" transform="translate(79.515 14.892)" fill="#00c993"/>
    <rect id="Rectangle_856" data-name="Rectangle 856" width="2.418" height="1.358" transform="translate(79.515 17.382)" fill="#00c993"/>
    <path id="Path_32368" data-name="Path 32368" d="M352.34,21.514h4.6a1.109,1.109,0,0,0-.226-.3L352,16.844a1.09,1.09,0,0,0-.451-.254l.082,4.224A.714.714,0,0,0,352.34,21.514Z" transform="translate(-260.567 -16.553)" fill="#00c993"/>
    <rect id="Rectangle_857" data-name="Rectangle 857" width="2.418" height="1.405" transform="translate(79.515 19.752)" fill="#00c993"/>
    <rect id="Rectangle_858" data-name="Rectangle 858" width="7.702" height="1.405" transform="translate(82.93 19.752)" fill="#00c993"/>
    <rect id="Rectangle_859" data-name="Rectangle 859" width="2.418" height="1.374" transform="translate(79.515 10.136)" fill="#00c993"/>
    <rect id="Rectangle_860" data-name="Rectangle 860" width="7.702" height="1.358" transform="translate(82.93 17.382)" fill="#00c993"/>
    <path id="Path_32369" data-name="Path 32369" d="M91.805,21.921a1.75,1.75,0,0,1-1.745-1.7L89.978,16H75.846A2.343,2.343,0,0,0,73.5,18.336V43.664A2.343,2.343,0,0,0,75.846,46H94.154A2.343,2.343,0,0,0,96.5,43.664V21.921Zm-.15,15.487a.774.774,0,0,1-.229.551.787.787,0,0,1-.555.228H79.259a.78.78,0,0,1-.782-.776V25.885a.78.78,0,0,1,.782-.776H90.872a.78.78,0,0,1,.782.776Z" transform="translate(0 -16)" fill="#00c993"/>
    <rect id="Rectangle_861" data-name="Rectangle 861" width="7.702" height="1.374" transform="translate(82.93 10.136)" fill="#00c993"/>
    <rect id="Rectangle_862" data-name="Rectangle 862" width="7.702" height="1.358" transform="translate(82.93 12.523)" fill="#00c993"/>
    <rect id="Rectangle_863" data-name="Rectangle 863" width="7.702" height="1.479" transform="translate(82.93 14.892)" fill="#00c993"/>
  </g>
</svg>
