<svg id="Component_78_1" data-name="Component 78 – 1" xmlns="http://www.w3.org/2000/svg" width="30" height="30" viewBox="0 0 30 30">
  <circle id="Ellipse_734" data-name="Ellipse 734" cx="15" cy="15" r="15" fill="rgba(168,168,168,0.15)"/>
  <path id="FontAwsome_file-export_" data-name="FontAwsome (file-export)" d="M8.664,2.75a.54.54,0,0,0-.158-.381L6.3.158A.541.541,0,0,0,5.914,0H5.776V2.888H8.664Zm4.219,4.2L10.724,4.774a.362.362,0,0,0-.618.255V6.5H8.662V7.942h1.444V9.413a.362.362,0,0,0,.618.255l2.159-2.177A.384.384,0,0,0,12.883,6.949Zm-8.551.632V6.859A.362.362,0,0,1,4.693,6.5H8.664V3.61H5.6a.543.543,0,0,1-.541-.541V0H.541A.54.54,0,0,0,0,.541V11.01a.54.54,0,0,0,.541.541H8.122a.54.54,0,0,0,.541-.541V7.942H4.693A.362.362,0,0,1,4.332,7.581Z" transform="translate(9.146 9.223)" fill="#8fa4c1"/>
</svg>
