<svg xmlns="http://www.w3.org/2000/svg" width="30" height="30" viewBox="0 0 30 30"><defs><style>.a{fill:rgba(168,168,168,0.15);}.b{fill:none;}.c{fill:#0068ff;}</style></defs><circle class="a" cx="15" cy="15" r="15"/><g transform="translate(7 7)"><rect class="b" width="16" height="16"/><g transform="translate(1.177 1.178)"><path class="c" d="M12.027,17.964h-.244l-2.444-.524a1.082,1.082,0,0,1-.8-1.047V12.029L4.346,8.119A.908.908,0,0,1,4,7.351v-2.3A1.047,1.047,0,0,1,5.045,4H16.914a1.047,1.047,0,0,1,1.047,1.047V7.7a.978.978,0,0,1-.384.8l-4.5,3.561v4.853a1.062,1.062,0,0,1-1.047,1.047ZM9.932,16.079l1.746.419V11.4l4.887-3.875V5.4H5.394V7.212l4.538,4.224Z" transform="translate(-3.996 -4)"/></g></g></svg>
