<svg xmlns="http://www.w3.org/2000/svg" xmlns:xlink="http://www.w3.org/1999/xlink" width="92" height="92" viewBox="0 0 92 92"><defs><style>.a{fill:#00bdff;stroke:rgba(255,255,255,0.4);stroke-width:2px;}.b{fill:none;}.c{fill:#fff;}.d{stroke:none;}.e{filter:url(#a);}</style><filter id="a" x="0" y="0" width="92" height="92" filterUnits="userSpaceOnUse"><feOffset dy="6" input="SourceAlpha"/><feGaussianBlur stdDeviation="8" result="b"/><feFlood flood-opacity="0.071"/><feComposite operator="in" in2="b"/><feComposite in="SourceGraphic"/></filter></defs><g transform="translate(24 24)"><g class="e" transform="matrix(1, 0, 0, 1, -24, -24)"><g class="a" transform="translate(24 24)"><rect class="d" width="44" height="44" rx="22"/><rect class="b" x="1" y="1" width="42" height="42" rx="21"/></g></g><g transform="translate(13.211 13.711)"><rect class="b" width="18" height="18" transform="translate(-0.211 -0.211)"/><g transform="translate(0.741 0.733)"><path class="c" d="M17.565,4.209H14.23V2.764a.778.778,0,0,0-.63-.778.741.741,0,0,0-.852.741V4.209H7.559V2.764a.778.778,0,0,0-.63-.778.741.741,0,0,0-.852.741V4.209H2.741A.741.741,0,0,0,2,4.95V16.81a.741.741,0,0,0,.741.741H17.565a.741.741,0,0,0,.741-.741V4.95A.741.741,0,0,0,17.565,4.209Zm-.741,11.859H3.482V8.656H16.824Zm0-8.894H3.482V5.692H16.824Z" transform="translate(-2 -1.977)"/><rect class="c" width="3" height="3" rx="1.5" transform="translate(2.047 8.056)"/><rect class="c" width="3" height="3" rx="1.5" transform="translate(11.047 8.056)"/><rect class="c" width="3" height="3" rx="1.5" transform="translate(7.047 8.056)"/></g></g></g></svg>
