<svg xmlns="http://www.w3.org/2000/svg" width="22" height="20" viewBox="0 0 22 20">
  <g id="certificate-solid" transform="translate(-2 -6)">
    <path id="Path_2717" data-name="Path 2717" d="M13.688,23.084H3.375A1.4,1.4,0,0,1,2,21.66V7.424A1.4,1.4,0,0,1,3.375,6h19.25A1.4,1.4,0,0,1,24,7.424v7.382a5.6,5.6,0,0,0-7.878-1.139,6.073,6.073,0,0,0-1.4,8.107l-.639.811ZM5.437,10.271V11.41H17.125V10.271Zm0,3.986H13V13.118H5.437Zm0,4.983h6.875V18.1H5.437Z" transform="translate(0 0)" fill="#fff"/>
    <path id="Path_2718" data-name="Path 2718" d="M30.021,21.68a4.465,4.465,0,1,0-7.55,3.218l-1.36,1.661.631,2.531,2.566-3.126a4.388,4.388,0,0,0,2.489,0l2.566,3.126.631-2.531L28.633,24.9A4.444,4.444,0,0,0,30.021,21.68Zm-7.529,0a3.06,3.06,0,1,0,.007,0Z" transform="translate(-6.14 -3.09)" fill="#fff"/>
  </g>
</svg>
