<svg xmlns="http://www.w3.org/2000/svg" xmlns:xlink="http://www.w3.org/1999/xlink" width="92" height="92" viewBox="0 0 92 92"><defs><style>.a{fill:#ff4500;stroke:rgba(255,255,255,0.4);stroke-width:2px;}.b{fill:none;}.c{fill:#fff;}.d{stroke:none;}.e{filter:url(#a);}</style><filter id="a" x="0" y="0" width="92" height="92" filterUnits="userSpaceOnUse"><feOffset dy="6" input="SourceAlpha"/><feGaussianBlur stdDeviation="8" result="b"/><feFlood flood-opacity="0.071"/><feComposite operator="in" in2="b"/><feComposite in="SourceGraphic"/></filter></defs><g transform="translate(24 24)"><g class="e" transform="matrix(1, 0, 0, 1, -24, -24)"><g class="a" transform="translate(24 24)"><rect class="d" width="44" height="44" rx="22"/><rect class="b" x="1" y="1" width="42" height="42" rx="21"/></g></g><g transform="translate(13.77 13.27)"><g transform="translate(0.302 0.302)"><rect class="b" width="17" height="17" transform="translate(-0.072 -0.072)"/></g><g transform="translate(0.762 1.836)"><g transform="translate(5.465 3.544)"><rect class="c" width="4" height="1" rx="0.5" transform="translate(4.003 -0.15)"/><rect class="c" width="4" height="1" rx="0.5" transform="translate(4.003 2.85)"/><rect class="c" width="8" height="2" rx="1" transform="translate(0.003 4.85)"/><rect class="c" width="3" height="4" rx="1.5" transform="translate(0.003 -0.15)"/></g><path class="c" d="M17.036,5H5.58a.716.716,0,0,0-.716.716V9.3H2.716A.716.716,0,0,0,2,10.012H2v6.444A2.148,2.148,0,0,0,4.148,18.6H15.6a2.148,2.148,0,0,0,2.148-2.148V5.716A.716.716,0,0,0,17.036,5ZM3.432,16.456V10.728H4.864v5.728a.716.716,0,1,1-1.432,0Zm12.888,0a.716.716,0,0,1-.716.716H6.189a2.291,2.291,0,0,0,.107-.716V6.432H16.32Z" transform="translate(-2 -5)"/></g></g></g></svg>
