<svg xmlns="http://www.w3.org/2000/svg" width="207.03" height="41.006" viewBox="0 0 207.03 41.006">
  <g id="logo-white" transform="translate(-0.595 -1.97)">
    <path id="Path_2713" data-name="Path 2713" d="M1.249,35.362H19.422V32.53H5.059L19.268,11.319V9H1.095v2.831H15.458L1.249,33.045ZM63.821,9V26.2c0,3.861-2.651,6.641-7.053,6.641s-7.053-2.78-7.053-6.641V9H46.523V26.455c0,5.406,4.041,9.37,10.245,9.37s10.245-3.964,10.245-9.37V9Zm53.553,13.179c0-8.34-4.891-13.54-11.635-13.54S94.1,13.842,94.1,22.182s4.891,13.54,11.635,13.54a11.481,11.481,0,0,0,4.749-.978l2.3,3.089h3.5l-3.437-4.569C115.662,30.96,117.373,27.124,117.373,22.182Zm-12.665,4.942,3.913,5.123a8.531,8.531,0,0,1-2.883.489c-4.788,0-8.546-3.707-8.546-10.554s3.758-10.554,8.546-10.554,8.546,3.707,8.546,10.554c0,3.977-1.261,6.886-3.269,8.636l-2.806-3.694Zm62.018-4.942c0-8.34-4.891-13.54-11.635-13.54s-11.635,5.2-11.635,13.54,4.891,13.54,11.635,13.54S166.727,30.522,166.727,22.182Zm-3.089,0c0,6.847-3.758,10.554-8.546,10.554s-8.546-3.707-8.546-10.554,3.758-10.554,8.546-10.554S163.638,15.335,163.638,22.182Z" transform="translate(0 4.643)" fill="#fff" stroke="#fff" stroke-width="1"/>
    <path id="Path_2714" data-name="Path 2714" d="M90.573,4.088h4.736V17.532h1.824V4.088h4.736V2.47h-11.3ZM104.685,2.47V17.532h1.706V6.088h.147l4.706,11.444h1.648L117.6,6.088h.148V17.532h1.706V2.47h-2.178l-5.119,12.5h-.176l-5.119-12.5Z" transform="translate(87.672)" fill="#fff" stroke="#fff" stroke-width="1"/>
  </g>
</svg>
