<svg xmlns="http://www.w3.org/2000/svg" width="22" height="20" viewBox="0 0 22 20">
  <g id="noun_channel_964423" transform="translate(-22.13 -25)">
    <path id="Path_2726" data-name="Path 2726" d="M42.54,39.1a3.111,3.111,0,0,0-3.824.515l-1.5-.871a4.4,4.4,0,0,0,.237-1.466A4.337,4.337,0,0,0,33.906,33V31.218a3.154,3.154,0,1,0-1.577,0V33a4.337,4.337,0,0,0-3.548,4.277,4.564,4.564,0,0,0,.237,1.465l-1.5.871a3.12,3.12,0,0,0-3.824-.515,3.174,3.174,0,0,0-1.143,4.317,3.116,3.116,0,0,0,4.3,1.149A3.2,3.2,0,0,0,28.308,41l1.538-.871a4.323,4.323,0,0,0,6.623,0L38.006,41a3.174,3.174,0,0,0,1.458,3.564,3.1,3.1,0,0,0,4.3-1.149A3.272,3.272,0,0,0,42.54,39.1Zm-9.422.951a2.772,2.772,0,1,1,2.76-2.772A2.749,2.749,0,0,1,33.117,40.05Z" fill="#fff"/>
  </g>
</svg>
