<svg xmlns="http://www.w3.org/2000/svg" width="20" height="20" viewBox="0 0 20 20">
  <g id="settings-solid-badged" transform="translate(-2.97 -1)">
    <path id="Path_2715" data-name="Path 2715" d="M21.451,10.95l-2.092-.625a7.58,7.58,0,0,0-.293-.825,4.679,4.679,0,0,1-3.834-3.85,7.376,7.376,0,0,0-.83-.3l-.624-2.069A.381.381,0,0,0,13.41,3H11.3a.381.381,0,0,0-.362.269l-.624,2.063a7.257,7.257,0,0,0-1.486.625L6.954,4.944a.381.381,0,0,0-.45.069L4.987,6.494a.382.382,0,0,0-.069.45L5.93,8.819A7.273,7.273,0,0,0,5.305,10.3l-2.067.625a.381.381,0,0,0-.268.362V13.4a.381.381,0,0,0,.268.362l2.079.625a7.266,7.266,0,0,0,.624,1.456L4.918,17.806a.382.382,0,0,0,.069.45L6.479,19.75a.381.381,0,0,0,.45.069l1.929-1.031a7.27,7.27,0,0,0,1.436.588l.624,2.106a.381.381,0,0,0,.362.269h2.11a.381.381,0,0,0,.362-.269l.624-2.113a7.257,7.257,0,0,0,1.424-.588l1.942,1.038a.381.381,0,0,0,.45-.069l1.492-1.494a.382.382,0,0,0,.069-.45l-1.036-1.937a7.273,7.273,0,0,0,.593-1.431l2.1-.625a.381.381,0,0,0,.268-.363V11.319a.381.381,0,0,0-.231-.369Zm-9.1,4.862a3.438,3.438,0,1,1,3.434-3.437,3.436,3.436,0,0,1-3.434,3.437Z" transform="translate(0 -0.75)" fill="#fff"/>
    <path id="Path_2716" data-name="Path 2716" d="M31.25,4.125A3.125,3.125,0,1,1,28.125,1,3.125,3.125,0,0,1,31.25,4.125Z" transform="translate(-8.28)" fill="#fff"/>
  </g>
</svg>
