<svg xmlns="http://www.w3.org/2000/svg" width="40" height="40" viewBox="0 0 40 40">
  <g id="notification" transform="translate(-1118 -18)">
    <circle id="Ellipse_108" data-name="Ellipse 108" cx="20" cy="20" r="20" transform="translate(1118 18)" fill="#eff3ff"/>
    <g id="Group_3049" data-name="Group 3049" transform="translate(1130.121 30.121)">
      <path id="notice-push" d="M17.07,11.683a3.592,3.592,0,1,1,3.592-3.592A3.592,3.592,0,0,1,17.07,11.683ZM6.3,6.3h5.387v1.8H6.3V18.866H17.07V13.479h1.8v5.387a1.8,1.8,0,0,1-1.8,1.8H6.3a1.8,1.8,0,0,1-1.8-1.8V8.092A1.8,1.8,0,0,1,6.3,6.3Z" transform="translate(-4.5 -4.5)"/>
      <path id="notice-push-2" data-name="notice-push" d="M19.2,11.683a3.592,3.592,0,1,1,3.592-3.592A3.592,3.592,0,0,1,19.2,11.683Z" transform="translate(-6.632 -4.5)" fill="#0068ff"/>
    </g>
  </g>
</svg>
