<svg xmlns="http://www.w3.org/2000/svg" xmlns:xlink="http://www.w3.org/1999/xlink" width="92" height="92" viewBox="0 0 92 92"><defs><style>.a{fill:#00c9c1;stroke:rgba(255,255,255,0.4);stroke-width:2px;}.b{fill:none;}.c{fill:#fff;}.d{stroke:none;}.e{filter:url(#a);}</style><filter id="a" x="0" y="0" width="92" height="92" filterUnits="userSpaceOnUse"><feOffset dy="6" input="SourceAlpha"/><feGaussianBlur stdDeviation="8" result="b"/><feFlood flood-opacity="0.071"/><feComposite operator="in" in2="b"/><feComposite in="SourceGraphic"/></filter></defs><g transform="translate(24 24)"><g class="e" transform="matrix(1, 0, 0, 1, -24, -24)"><g class="a" transform="translate(24 24)"><rect class="d" width="44" height="44" rx="22"/><rect class="b" x="1" y="1" width="42" height="42" rx="21"/></g></g><g transform="translate(11.651 11.151)"><g transform="translate(-0.441 -0.441)"><rect class="b" width="22" height="22" transform="translate(-0.21 -0.211)"/></g><g transform="translate(2.161 0.822)"><path class="c" d="M21.064,19.849h-.446V5.124a1.294,1.294,0,0,0-1.339-1.339H7.677A1.294,1.294,0,0,0,6.339,5.124V19.849H5.892a.892.892,0,0,0,0,1.785H21.064a.892.892,0,1,0,0-1.785Zm-2.231,0H14.817V16.725H12.14v3.124H8.124V5.57H10.8c0,1.385,5.355,1.385,5.355,0h2.677Z" transform="translate(-5 -2)"/><rect class="c" width="3" height="3" transform="translate(5.188 6.526)"/><rect class="c" width="3" height="3" transform="translate(9.188 6.526)"/><rect class="c" width="3" height="3" transform="translate(5.188 10.526)"/><rect class="c" width="3" height="3" transform="translate(9.188 10.526)"/></g></g></g></svg>
