<svg xmlns="http://www.w3.org/2000/svg" width="23" height="30" viewBox="0 0 23 30">
  <g id="noun_PDF_3179225" transform="translate(-9)">
    <rect id="Rectangle_864" data-name="Rectangle 864" width="9.157" height="1.034" transform="translate(12.425 7.4)" fill="#d91c32"/>
    <rect id="Rectangle_865" data-name="Rectangle 865" width="9.157" height="1.034" transform="translate(19.418 14.101)" fill="#d91c32"/>
    <rect id="Rectangle_866" data-name="Rectangle 866" width="15.761" height="1.034" transform="translate(12.619 9.632)" fill="#d91c32"/>
    <rect id="Rectangle_867" data-name="Rectangle 867" width="15.761" height="1.034" transform="translate(12.619 11.866)" fill="#d91c32"/>
    <path id="Path_32370" data-name="Path 32370" d="M31.5,23.434V10.064l-.146-.149L24.208,2.649,24.062,2.5H11.5a2.017,2.017,0,0,0-2,2.034V21.691a1.016,1.016,0,0,0-.5.876v7.391A2.524,2.524,0,0,0,11.5,32.5h18A2.524,2.524,0,0,0,32,29.958V24.31A1.016,1.016,0,0,0,31.5,23.434ZM18.156,28.34a1.782,1.782,0,0,1-1.179.346h-.683v1.78H15.34V25.93h1.644a2.57,2.57,0,0,1,.631.073,1.368,1.368,0,0,1,.5.238,1.127,1.127,0,0,1,.338.43,1.531,1.531,0,0,1,.123.642,1.259,1.259,0,0,1-.425,1.027Zm4.289.827a1.8,1.8,0,0,1-.395.712,1.907,1.907,0,0,1-1.513.592H19.066V25.93h1.459a2.364,2.364,0,0,1,.918.162,1.651,1.651,0,0,1,.637.461,1.922,1.922,0,0,1,.371.717,3.41,3.41,0,0,1,.119.937,3.352,3.352,0,0,1-.125.961ZM25.96,26.76H24.022v.927h1.446l.006.83-1.45.006V30.47h-.956V25.93H25.96Zm4.54-3.467H19.543l-1.2-1.4a.993.993,0,0,0-.752-.347H10.5V4.534a1.009,1.009,0,0,1,1-1.017H23.355V8.749a2.017,2.017,0,0,0,2,2.034H30.5Z" transform="translate(0 -2.5)" fill="#d91c32"/>
    <path id="Path_32371" data-name="Path 32371" d="M32.41,50.572a.992.992,0,0,0-.847-.362H31.04v2.929h.511a1.212,1.212,0,0,0,.564-.116.888.888,0,0,0,.348-.319,1.34,1.34,0,0,0,.178-.469,3.086,3.086,0,0,0,.052-.566,2.547,2.547,0,0,0-.071-.641A1.29,1.29,0,0,0,32.41,50.572Z" transform="translate(-11.048 -26.046)" fill="#d91c32"/>
    <path id="Path_32372" data-name="Path 32372" d="M24.8,50.341a.972.972,0,0,0-.58-.133h-.63v1.117h.63A1.839,1.839,0,0,0,24.5,51.3a.691.691,0,0,0,.237-.079.433.433,0,0,0,.165-.164.537.537,0,0,0,.063-.276.728.728,0,0,0-.044-.276.385.385,0,0,0-.124-.167Z" transform="translate(-7.309 -26.045)" fill="#d91c32"/>
  </g>
</svg>
