<svg xmlns="http://www.w3.org/2000/svg" xmlns:xlink="http://www.w3.org/1999/xlink" width="30" height="30" viewBox="0 0 20 25">
  <path id="FontAwsome_chart-pie_" data-name="FontAwsome (chart-pie)" d="M19.53,10.662H10.748L16.6,16.51a.594.594,0,0,0,.821.025,8.863,8.863,0,0,0,2.706-5.213.593.593,0,0,0-.594-.661Zm-.586-2.4A8.9,8.9,0,0,0,10.686.005a.6.6,0,0,0-.622.6V8.885h8.281A.6.6,0,0,0,18.944,8.264Zm-10.657,2.4V1.88a.593.593,0,0,0-.66-.594A8.875,8.875,0,0,0,0,10.379a8.991,8.991,0,0,0,8.989,8.571A8.813,8.813,0,0,0,14,17.321a.588.588,0,0,0,.058-.891Z" transform="translate(0 3)" fill="#0068ff"/>
</svg>
