<svg xmlns="http://www.w3.org/2000/svg" xmlns:xlink="http://www.w3.org/1999/xlink" width="92" height="92" viewBox="0 0 92 92"><defs><style>.a{fill:#0068ff;stroke:rgba(255,255,255,0.4);stroke-width:2px;}.b{fill:#fff;stroke:#fff;}.c{stroke:none;}.d{fill:none;}.e{filter:url(#a);}</style><filter id="a" x="0" y="0" width="92" height="92" filterUnits="userSpaceOnUse"><feOffset dy="6" input="SourceAlpha"/><feGaussianBlur stdDeviation="8" result="b"/><feFlood flood-opacity="0.071"/><feComposite operator="in" in2="b"/><feComposite in="SourceGraphic"/></filter></defs><g transform="translate(24 24)"><g class="e" transform="matrix(1, 0, 0, 1, -24, -24)"><g class="a" transform="translate(24 24)"><rect class="c" width="44" height="44" rx="22"/><rect class="d" x="1" y="1" width="42" height="42" rx="21"/></g></g><g transform="translate(14.049 14.355)"><path class="b" d="M29.64,26.7H28.565v-2.69a2.693,2.693,0,0,0-2.69-2.69V20.25a3.77,3.77,0,0,1,3.765,3.765Z" transform="translate(-15.086 -12.151)"/><path class="b" d="M13.008,26.7H11.932v-2.69a2.693,2.693,0,0,0-2.69-2.69H6.015a2.693,2.693,0,0,0-2.69,2.69V26.7H2.25v-2.69A3.77,3.77,0,0,1,6.015,20.25H9.243a3.77,3.77,0,0,1,3.765,3.765Z" transform="translate(-2.25 -12.151)"/><path class="b" d="M22.5,2.25V3.326a2.69,2.69,0,1,1,0,5.379V9.781a3.765,3.765,0,1,0,0-7.531Z" transform="translate(-13.325 -2.25)"/><path class="b" d="M9.39,3.326A2.69,2.69,0,1,1,6.7,6.015a2.69,2.69,0,0,1,2.69-2.69m0-1.076a3.765,3.765,0,1,0,3.765,3.765A3.765,3.765,0,0,0,9.39,2.25Z" transform="translate(-4.011 -2.25)"/></g></g></svg>
