<svg xmlns="http://www.w3.org/2000/svg" width="20" height="20" viewBox="0 0 20 20">
  <path id="barchart" d="M20,18.74A1.267,1.267,0,0,1,18.75,20H1.25a1.209,1.209,0,0,1-.889-.361,1.275,1.275,0,0,1,0-1.778A1.207,1.207,0,0,1,1.25,17.5V11.25A1.233,1.233,0,0,1,2.5,10H5a1.218,1.218,0,0,1,.879.361,1.192,1.192,0,0,1,.371.889V17.5H7.5V1.25A1.209,1.209,0,0,1,7.861.361,1.205,1.205,0,0,1,8.75,0h2.5a1.209,1.209,0,0,1,.889.361,1.205,1.205,0,0,1,.361.889V17.5h1.25V6.25a1.193,1.193,0,0,1,.371-.889A1.215,1.215,0,0,1,15,5h2.5a1.233,1.233,0,0,1,1.25,1.25V17.5a1.209,1.209,0,0,1,.889.361A1.193,1.193,0,0,1,20,18.74Z" transform="translate(0)" fill="#fff"/>
</svg>
