<svg xmlns="http://www.w3.org/2000/svg" width="20" height="20" viewBox="0 0 20 20">
  <path id="bxs-dashboard" d="M5.611,15.611h6.667A1.111,1.111,0,0,0,13.389,14.5V5.611A1.111,1.111,0,0,0,12.278,4.5H5.611A1.111,1.111,0,0,0,4.5,5.611V14.5a1.111,1.111,0,0,0,1.111,1.111ZM4.5,23.389A1.111,1.111,0,0,0,5.611,24.5h6.667a1.111,1.111,0,0,0,1.111-1.111V18.944a1.111,1.111,0,0,0-1.111-1.111H5.611A1.111,1.111,0,0,0,4.5,18.944Zm11.111,0A1.111,1.111,0,0,0,16.722,24.5h6.667A1.111,1.111,0,0,0,24.5,23.389V15.611A1.111,1.111,0,0,0,23.389,14.5H16.722a1.111,1.111,0,0,0-1.111,1.111Zm1.111-11.111h6.667A1.111,1.111,0,0,0,24.5,11.167V5.611A1.111,1.111,0,0,0,23.389,4.5H16.722a1.111,1.111,0,0,0-1.111,1.111v5.556A1.111,1.111,0,0,0,16.722,12.278Z" transform="translate(-4.5 -4.5)" fill="#0068ff"/>
</svg>
