<?xml version="1.0" encoding="UTF-8"?>
<svg xmlns="http://www.w3.org/2000/svg" xmlns:xlink="http://www.w3.org/1999/xlink" width="7pt" height="15pt" viewBox="0 0 7 15" version="1.1">
<g id="surface1">
<path style=" stroke:none;fill-rule:nonzero;fill:#93A4BC;fill-opacity:1;" d="M 2.757812 1.261719 C 2.757812 0.5625 2.144531 0 1.386719 0 C 0.628906 0 0.015625 0.5625 0.015625 1.261719 C 0.015625 1.957031 0.628906 2.519531 1.386719 2.519531 C 2.144531 2.519531 2.757812 1.957031 2.757812 1.261719 Z M 2.757812 1.261719 "/>
<path style=" stroke:none;fill-rule:nonzero;fill:#93A4BC;fill-opacity:1;" d="M 6.917969 1.261719 C 6.917969 0.5625 6.304688 0 5.546875 0 C 4.789062 0 4.175781 0.5625 4.175781 1.261719 C 4.175781 1.957031 4.789062 2.519531 5.546875 2.519531 C 6.304688 2.519531 6.917969 1.957031 6.917969 1.261719 Z M 6.917969 1.261719 "/>
<path style=" stroke:none;fill-rule:nonzero;fill:#93A4BC;fill-opacity:1;" d="M 2.757812 7.5625 C 2.757812 6.867188 2.144531 6.300781 1.386719 6.300781 C 0.628906 6.300781 0.015625 6.867188 0.015625 7.5625 C 0.015625 8.257812 0.628906 8.824219 1.386719 8.824219 C 2.144531 8.824219 2.757812 8.257812 2.757812 7.5625 Z M 2.757812 7.5625 "/>
<path style=" stroke:none;fill-rule:nonzero;fill:#93A4BC;fill-opacity:1;" d="M 6.917969 7.5625 C 6.917969 6.867188 6.304688 6.300781 5.546875 6.300781 C 4.789062 6.300781 4.175781 6.867188 4.175781 7.5625 C 4.175781 8.257812 4.789062 8.824219 5.546875 8.824219 C 6.304688 8.824219 6.917969 8.257812 6.917969 7.5625 Z M 6.917969 7.5625 "/>
<path style=" stroke:none;fill-rule:nonzero;fill:#93A4BC;fill-opacity:1;" d="M 2.824219 13.738281 C 2.824219 13.042969 2.210938 12.480469 1.453125 12.480469 C 0.695312 12.480469 0.0820312 13.042969 0.0820312 13.738281 C 0.0820312 14.4375 0.695312 15 1.453125 15 C 2.210938 15 2.824219 14.4375 2.824219 13.738281 Z M 2.824219 13.738281 "/>
<path style=" stroke:none;fill-rule:nonzero;fill:#93A4BC;fill-opacity:1;" d="M 6.984375 13.738281 C 6.984375 13.042969 6.371094 12.480469 5.613281 12.480469 C 4.855469 12.480469 4.242188 13.042969 4.242188 13.738281 C 4.242188 14.4375 4.855469 15 5.613281 15 C 6.371094 15 6.984375 14.4375 6.984375 13.738281 Z M 6.984375 13.738281 "/>
</g>
</svg>
