<svg xmlns="http://www.w3.org/2000/svg" xmlns:xlink="http://www.w3.org/1999/xlink" width="92" height="92" viewBox="0 0 92 92"><defs><style>.a{fill:#ff9d00;stroke:rgba(255,255,255,0.4);stroke-width:2px;}.b{fill:#fff;}.c{stroke:none;}.d{fill:none;}.e{filter:url(#a);}</style><filter id="a" x="0" y="0" width="92" height="92" filterUnits="userSpaceOnUse"><feOffset dy="6" input="SourceAlpha"/><feGaussianBlur stdDeviation="8" result="b"/><feFlood flood-opacity="0.071"/><feComposite operator="in" in2="b"/><feComposite in="SourceGraphic"/></filter></defs><g transform="translate(24 24)"><g class="e" transform="matrix(1, 0, 0, 1, -24, -24)"><g class="a" transform="translate(24 24)"><rect class="c" width="44" height="44" rx="22"/><rect class="d" x="1" y="1" width="42" height="42" rx="21"/></g></g><g transform="translate(8.525 9.524)"><path class="b" d="M20.954,6V8.987H6V6H20.954m0-1.5H6A1.5,1.5,0,0,0,4.5,6V8.987a1.5,1.5,0,0,0,1.5,1.5H20.954a1.5,1.5,0,0,0,1.5-1.5V6A1.5,1.5,0,0,0,20.954,4.5Z"/><path class="b" d="M8.987,17.246v7.479H6V17.246H8.987m0-1.5H6a1.5,1.5,0,0,0-1.5,1.5v7.479a1.5,1.5,0,0,0,1.5,1.5H8.987a1.5,1.5,0,0,0,1.5-1.5V17.246A1.5,1.5,0,0,0,8.987,15.75Z" transform="translate(0 -3.771)"/><path class="b" d="M24.725,17.246v7.479H17.246V17.246h7.479m0-1.5H17.246a1.5,1.5,0,0,0-1.5,1.5v7.479a1.5,1.5,0,0,0,1.5,1.5h7.479a1.5,1.5,0,0,0,1.5-1.5V17.246A1.5,1.5,0,0,0,24.725,15.75Z" transform="translate(-3.771 -3.771)"/></g></g></svg>
