<svg xmlns="http://www.w3.org/2000/svg" width="24" height="30" viewBox="0 0 24 30">
  <g id="noun_text_sheet_629248" data-name="noun_text sheet_629248" transform="translate(-1.5 -3)">
    <g id="Group_10544" data-name="Group 10544" transform="translate(1.5 3)">
      <path id="Subtraction_4" data-name="Subtraction 4" d="M543.265-2704h-20.53a1.741,1.741,0,0,1-1.735-1.742v-26.516a1.741,1.741,0,0,1,1.735-1.742h14.65v6.968a.752.752,0,0,0,.675.774H545v20.516A1.741,1.741,0,0,1,543.265-2704Zm-16.578-5.323a.815.815,0,0,0-.771.677.766.766,0,0,0,.771.775H539.41c.4,0,.681-.405.771-.678a.748.748,0,0,0-.243-.569.792.792,0,0,0-.528-.205Zm0-4.162a.765.765,0,0,0-.771.774.765.765,0,0,0,.771.774H539.41c.387,0,.675-.289.771-.774a.765.765,0,0,0-.771-.774Zm0-3.968a.766.766,0,0,0-.771.775.765.765,0,0,0,.771.774h12.626a.765.765,0,0,0,.771-.774.691.691,0,0,0-.675-.775Zm5.522-8.778v5.85h1.58v-5.85h2.23v-1.27h-6.04v1.27Z" transform="translate(-521 2734)" fill="#0068ff"/>
      <path id="Path_32376" data-name="Path 32376" d="M28,6.9h0L22.1,1H22V7h6Z" transform="translate(-4.4 -0.5)" fill="#0068ff"/>
    </g>
  </g>
</svg>
