<svg xmlns="http://www.w3.org/2000/svg" width="24" height="24" viewBox="0 0 24 24">
  <path id="FontAwsome_check-square_" data-name="FontAwsome (check-square)" d="M21.429,56H2.571A2.571,2.571,0,0,1,0,53.429V34.571A2.571,2.571,0,0,1,2.571,32H21.429A2.571,2.571,0,0,1,24,34.571V53.429A2.571,2.571,0,0,1,21.429,56ZM10.463,50.747,20.32,40.89a.857.857,0,0,0,0-1.212l-1.212-1.212a.857.857,0,0,0-1.212,0L9.857,46.5,6.1,42.751a.857.857,0,0,0-1.212,0L3.68,43.963a.857.857,0,0,0,0,1.212l5.571,5.571a.857.857,0,0,0,1.212,0Z" transform="translate(0 -32)" fill="#00c993"/>
</svg>
