<svg xmlns="http://www.w3.org/2000/svg" width="26" height="24" viewBox="0 0 26 24">
  <path id="FontAwsome_window-close_" data-name="FontAwsome (window-close)" d="M23.563,32H2.438A2.508,2.508,0,0,0,0,34.571V53.429A2.508,2.508,0,0,0,2.438,56H23.563A2.508,2.508,0,0,0,26,53.429V34.571A2.508,2.508,0,0,0,23.563,32ZM19.317,47.563a.686.686,0,0,1,0,.932l-2.057,2.17a.6.6,0,0,1-.884,0L13,47.07,9.623,50.664a.6.6,0,0,1-.884,0l-2.057-2.17a.686.686,0,0,1,0-.932L10.09,44,6.683,40.438a.686.686,0,0,1,0-.932l2.057-2.17a.6.6,0,0,1,.884,0L13,40.93l3.377-3.595a.6.6,0,0,1,.884,0l2.057,2.17a.686.686,0,0,1,0,.932L15.91,44Z" transform="translate(0 -32)" fill="#eb0000"/>
</svg>
