<svg xmlns="http://www.w3.org/2000/svg" width="27" height="30" viewBox="0 0 27 30">
  <g id="noun_word_3515281" transform="translate(-12)">
    <path id="Path_32377" data-name="Path 32377" d="M14.132,32.78V22.537a2.17,2.17,0,0,1,2.132-2.2H32.605V9.732A.723.723,0,0,0,31.895,9H19.105v5.122a2.17,2.17,0,0,1-2.132,2.2H12V38.268a.723.723,0,0,0,.711.732H31.895a.723.723,0,0,0,.711-.732V34.976H16.263A2.17,2.17,0,0,1,14.132,32.78Zm7.816-17.927h7.816a.732.732,0,0,1,0,1.463H21.947a.732.732,0,0,1,0-1.463Zm-4.974,0H12.995l4.689-4.829v4.1A.723.723,0,0,1,16.974,14.854ZM38.289,21.8H16.263a.723.723,0,0,0-.711.732V32.78a.723.723,0,0,0,.711.732H38.289A.723.723,0,0,0,39,32.78V22.537A.723.723,0,0,0,38.289,21.8ZM22.658,28.39a2.894,2.894,0,0,1-2.842,2.927H18.395a.723.723,0,0,1-.711-.732V24.732A.723.723,0,0,1,18.395,24h1.421a2.894,2.894,0,0,1,2.842,2.927Zm7.105.366a2.488,2.488,0,1,1-4.974,0v-2.2a2.488,2.488,0,1,1,4.974,0Zm4.618,1.1a1.092,1.092,0,0,0,.995-.659.683.683,0,0,1,.639-.439.418.418,0,0,1,.284.073.7.7,0,0,1,.355.951,2.473,2.473,0,0,1-4.761-1.024v-2.2A2.509,2.509,0,0,1,34.382,24a2.44,2.44,0,0,1,2.274,1.537.735.735,0,0,1-.355.951.467.467,0,0,1-.284.073.7.7,0,0,1-.639-.439,1.092,1.092,0,0,0-.995-.659,1.063,1.063,0,0,0-1.066,1.1v2.2A1.085,1.085,0,0,0,34.382,29.854ZM21.237,26.927V28.39a1.447,1.447,0,0,1-1.421,1.463h-.711v-4.39h.711A1.447,1.447,0,0,1,21.237,26.927Zm7.105-.366v2.2a1.066,1.066,0,1,1-2.132,0v-2.2a1.066,1.066,0,1,1,2.132,0Z" transform="translate(0 -9)" fill="#00bdff"/>
  </g>
</svg>
