<svg id="Component_52_2" data-name="Component 52 – 2" xmlns="http://www.w3.org/2000/svg" width="20" height="20" viewBox="0 0 20 20">
  <path id="Icon_material-move-to-inbox" data-name="Icon material-move-to-inbox" d="M22.278,4.5H6.711a2.2,2.2,0,0,0-2.2,2.222L4.5,22.278A2.212,2.212,0,0,0,6.711,24.5H22.278A2.229,2.229,0,0,0,24.5,22.278V6.722A2.229,2.229,0,0,0,22.278,4.5Zm0,13.333H17.833a3.333,3.333,0,1,1-6.667,0H6.711V6.722H22.278Z" transform="translate(-4.5 -4.5)"/>
  <path id="Icon_material-move-to-inbox-2" data-name="Icon material-move-to-inbox" d="M20.786,14.893h-2.2v3.295H14.2V14.893H12L16.393,10.5Z" transform="translate(-6.393 -5.809)"/>
</svg>
