<svg id="Component_54_5" data-name="Component 54 – 5" xmlns="http://www.w3.org/2000/svg" width="36" height="36" viewBox="0 0 36 36">
  <circle id="Ellipse_719" data-name="Ellipse 719" cx="18" cy="18" r="18" fill="rgba(168,168,168,0.15)"/>
  <g id="noun_Speech_Bubble_664195" data-name="noun_Speech Bubble_664195" transform="translate(3.323 -0.689)">
    <g id="Group_2885" data-name="Group 2885" transform="translate(6 11)">
      <path id="Path_2886" data-name="Path 2886" d="M14.677,11a10.084,10.084,0,0,0-6.1,1.929A6.063,6.063,0,0,0,6,17.705a5.961,5.961,0,0,0,2.317,4.536l-.733,3.667a.394.394,0,0,0,.548.438l3.346-1.473a.394.394,0,1,0-.314-.721L8.508,25.316l.629-3.131a.394.394,0,0,0-.148-.388,5.224,5.224,0,0,1-2.2-4.092,5.262,5.262,0,0,1,2.268-4.154,9.331,9.331,0,0,1,5.621-1.763A9.331,9.331,0,0,1,20.3,13.551a5.262,5.262,0,0,1,2.268,4.154A5.251,5.251,0,0,1,20.3,21.853a9.334,9.334,0,0,1-5.621,1.769,10.41,10.41,0,0,1-1.787-.154.394.394,0,1,0-.136.777,11.2,11.2,0,0,0,1.923.166,10.085,10.085,0,0,0,6.1-1.929,6.063,6.063,0,0,0,2.582-4.776,6.063,6.063,0,0,0-2.582-4.776A10.084,10.084,0,0,0,14.677,11Zm-3.587,4.93a.395.395,0,1,0,.037.789h6.705a.394.394,0,1,0,0-.789H11.091Zm0,2.761a.395.395,0,1,0,.037.789h6.705a.394.394,0,1,0,0-.789H11.091Z" transform="translate(-6 -11)" stroke="#000" stroke-width="0.75"/>
    </g>
  </g>
</svg>
