<svg xmlns="http://www.w3.org/2000/svg" width="17" height="17" viewBox="0 0 17 17">
  <g id="Icon_feather-copy" data-name="Icon feather-copy" transform="translate(-2 -2)">
    <path id="Path_2949" data-name="Path 2949" d="M15,13.5h6.75a1.5,1.5,0,0,1,1.5,1.5v6.75a1.5,1.5,0,0,1-1.5,1.5H15a1.5,1.5,0,0,1-1.5-1.5V15A1.5,1.5,0,0,1,15,13.5Z" transform="translate(-5.25 -5.25)" fill="none" stroke="#0068ff" stroke-linecap="round" stroke-linejoin="round" stroke-width="2"/>
    <path id="Path_2950" data-name="Path 2950" d="M5.25,12.75H4.5A1.5,1.5,0,0,1,3,11.25V4.5A1.5,1.5,0,0,1,4.5,3h6.75a1.5,1.5,0,0,1,1.5,1.5v.75" fill="none" stroke="#0068ff" stroke-linecap="round" stroke-linejoin="round" stroke-width="2"/>
  </g>
</svg>
