<svg xmlns="http://www.w3.org/2000/svg" width="16" height="18" viewBox="0 0 16 18">
  <path id="FontAwsome_calendar-alt_" data-name="FontAwsome (calendar-alt)" d="M5.286,10.125H3.857A.427.427,0,0,1,3.429,9.7V8.3a.427.427,0,0,1,.429-.422H5.286a.427.427,0,0,1,.429.422V9.7A.427.427,0,0,1,5.286,10.125ZM9.143,9.7V8.3a.427.427,0,0,0-.429-.422H7.286a.427.427,0,0,0-.429.422V9.7a.427.427,0,0,0,.429.422H8.714A.427.427,0,0,0,9.143,9.7Zm3.429,0V8.3a.427.427,0,0,0-.429-.422H10.714a.427.427,0,0,0-.429.422V9.7a.427.427,0,0,0,.429.422h1.429A.427.427,0,0,0,12.571,9.7ZM9.143,13.078V11.672a.427.427,0,0,0-.429-.422H7.286a.427.427,0,0,0-.429.422v1.406a.427.427,0,0,0,.429.422H8.714A.427.427,0,0,0,9.143,13.078Zm-3.429,0V11.672a.427.427,0,0,0-.429-.422H3.857a.427.427,0,0,0-.429.422v1.406a.427.427,0,0,0,.429.422H5.286A.427.427,0,0,0,5.714,13.078Zm6.857,0V11.672a.427.427,0,0,0-.429-.422H10.714a.427.427,0,0,0-.429.422v1.406a.427.427,0,0,0,.429.422h1.429A.427.427,0,0,0,12.571,13.078ZM16,3.938V16.313A1.7,1.7,0,0,1,14.286,18H1.714A1.7,1.7,0,0,1,0,16.313V3.938A1.7,1.7,0,0,1,1.714,2.25H3.429V.422A.427.427,0,0,1,3.857,0H5.286a.427.427,0,0,1,.429.422V2.25h4.571V.422A.427.427,0,0,1,10.714,0h1.429a.427.427,0,0,1,.429.422V2.25h1.714A1.7,1.7,0,0,1,16,3.938ZM14.286,16.1V5.625H1.714V16.1a.213.213,0,0,0,.214.211H14.071A.213.213,0,0,0,14.286,16.1Z"/>
</svg>
