<svg xmlns="http://www.w3.org/2000/svg" width="17" height="17" viewBox="0 0 17 17">
  <g id="Layer_2" data-name="Layer 2" transform="translate(-0.427 -0.427)">
    <g id="invisible_box" data-name="invisible box">
      <rect id="Rectangle_738" data-name="Rectangle 738" width="17" height="17" transform="translate(0.427 0.427)" fill="none"/>
    </g>
    <g id="icons_Q2" data-name="icons Q2" transform="translate(0.726 0.726)">
      <path id="Path_2884" data-name="Path 2884" d="M9.987,2a7.951,7.951,0,1,0,5.659,2.329A7.987,7.987,0,0,0,9.987,2Zm0,2.9a2.9,2.9,0,1,1-2.9,2.9,2.9,2.9,0,0,1,2.9-2.9Zm0,11.618a6.608,6.608,0,0,1-4.429-1.743,9.585,9.585,0,0,1,4.429-1.162,9.585,9.585,0,0,1,4.429,1.162A6.608,6.608,0,0,1,9.987,16.522Z" transform="translate(-2 -2)" fill="#0068ff"/>
    </g>
  </g>
</svg>
