<svg xmlns="http://www.w3.org/2000/svg" width="22.011" height="19.039" viewBox="0 0 22.011 19.039">
  <g id="mail-reply" transform="translate(-1.75 -4)">
    <path id="Path_2807" data-name="Path 2807" d="M24.737,20.25,23.686,21.3,25.6,23.222H18.146v1.486H25.6L23.685,26.63l1.052,1.05,3.715-3.715Z" transform="translate(-5.398 -5.348)" stroke="#000" stroke-width="1"/>
    <path id="Path_2808" data-name="Path 2808" d="M8.194,17.874H3.736l0-11.215,8.5,5.881a.743.743,0,0,0,.845,0l8.493-5.878v6.754h1.486V5.986A1.487,1.487,0,0,0,21.568,4.5H3.736A1.486,1.486,0,0,0,2.25,5.984v11.89A1.488,1.488,0,0,0,3.736,19.36H8.194ZM19.933,5.986l-7.281,5.041L5.371,5.986Z" stroke="#000" stroke-width="1"/>
  </g>
</svg>
