<svg xmlns="http://www.w3.org/2000/svg" width="21.804" height="19.039" viewBox="0 0 21.804 19.039">
  <g id="mail-reply" transform="translate(-1.75 -4)">
    <g id="Group_2866" data-name="Group 2866" transform="translate(14.324 14.902)">
      <path id="Path_2807" data-name="Path 2807" d="M27.584,20.25,26.533,21.3l1.918,1.921.747.743-.747.743L26.532,26.63l1.052,1.05L31.3,23.965Z" transform="translate(-26.532 -20.25)" stroke="#000" stroke-width="1"/>
      <path id="Path_2809" data-name="Path 2809" d="M30.247,20.25,31.3,21.3,29.38,23.222l-.747.743.747.743L31.3,26.63l-1.052,1.05-3.715-3.715Z" transform="translate(-23.89 -20.25)" stroke="#000" stroke-width="1"/>
    </g>
    <path id="Path_2808" data-name="Path 2808" d="M8.194,17.874H3.736l0-11.215,8.5,5.881a.743.743,0,0,0,.845,0l8.493-5.878v6.754h1.486V5.986A1.487,1.487,0,0,0,21.568,4.5H3.736A1.486,1.486,0,0,0,2.25,5.984v11.89A1.488,1.488,0,0,0,3.736,19.36H8.194ZM19.933,5.986l-7.281,5.041L5.371,5.986Z" stroke="#000" stroke-width="1"/>
  </g>
</svg>
