<svg id="Group_2674" data-name="Group 2674" xmlns="http://www.w3.org/2000/svg" width="29" height="29" viewBox="0 0 29 29">
  <circle id="Oval" cx="14.5" cy="14.5" r="14.5" fill="#0068ff"/>
  <g id="noun_send_984575" transform="translate(9.008 8.163)">
    <path id="Path" d="M7.443,7.208l-5.864.551L.036,12.552a.729.729,0,0,0,.23.787.783.783,0,0,0,.835.1L13.953,7.4a.7.7,0,0,0,0-1.277L1.11.076a.783.783,0,0,0-.835.1.729.729,0,0,0-.23.787L1.588,5.759l5.853.551a.448.448,0,0,1,0,.893Z" transform="translate(0 0)" fill="#fff"/>
  </g>
</svg>
