<svg xmlns="http://www.w3.org/2000/svg" width="195" height="39" viewBox="0 0 195 39"><defs><style>.a{fill:#fff;stroke:#fff;}</style></defs><g transform="translate(0.5 0.5)"><path class="a" d="M1.24,33.686H18.273V31.032H4.81L18.129,11.152V8.98H1.095v2.654H14.558L1.24,31.515ZM59.888,8.98V25.1c0,3.619-2.485,6.225-6.611,6.225s-6.611-2.606-6.611-6.225V8.98H43.675V25.338c0,5.067,3.788,8.782,9.6,8.782s9.6-3.715,9.6-8.782V8.98Zm50.2,12.353c0-7.817-4.584-12.691-10.905-12.691S88.272,13.516,88.272,21.333s4.584,12.691,10.906,12.691a10.761,10.761,0,0,0,4.451-.917l2.159,2.9h3.281l-3.221-4.283C108.479,29.561,110.083,25.966,110.083,21.333ZM98.213,25.966l3.667,4.8a8,8,0,0,1-2.7.458c-4.488,0-8.01-3.474-8.01-9.892s3.523-9.892,8.01-9.892,8.01,3.474,8.01,9.892c0,3.728-1.182,6.454-3.064,8.095l-2.63-3.462Zm58.13-4.632c0-7.817-4.584-12.691-10.905-12.691s-10.906,4.874-10.906,12.691,4.584,12.691,10.906,12.691S156.343,29.151,156.343,21.333Zm-2.9,0c0,6.418-3.523,9.892-8.01,9.892s-8.01-3.474-8.01-9.892,3.523-9.892,8.01-9.892S153.447,14.915,153.447,21.333Z" transform="translate(-1.095 1.997)"/><path class="a" d="M90.573,3.987h4.44v12.6h1.71V3.987h4.439V2.47H90.573ZM103.8,2.47V16.588h1.6V5.862h.138l4.411,10.726h1.545L115.9,5.862h.139V16.588h1.6V2.47H115.6l-4.8,11.719h-.165L105.84,2.47Z" transform="translate(76.357 -2.47)"/></g></svg>