<svg xmlns="http://www.w3.org/2000/svg" width="103.916" height="20.765" viewBox="0 0 103.916 20.765">
  <g id="logo-white" transform="translate(-1.095 -2.47)">
    <path id="Path_2713" data-name="Path 2713" d="M1.172,22h9.085V20.584H3.077l7.1-10.6V8.822H1.095v1.416H8.276l-7.1,10.6ZM32.453,8.822v8.6a3.226,3.226,0,0,1-3.526,3.32,3.226,3.226,0,0,1-3.526-3.32v-8.6h-1.6v8.725c0,2.7,2.02,4.684,5.122,4.684s5.122-1.982,5.122-4.684V8.822Zm26.772,6.589c0-4.169-2.445-6.769-5.817-6.769s-5.817,2.6-5.817,6.769,2.445,6.769,5.817,6.769a5.739,5.739,0,0,0,2.374-.489l1.152,1.544h1.75l-1.718-2.284A6.932,6.932,0,0,0,59.226,15.411Zm-6.331,2.471,1.956,2.561a4.265,4.265,0,0,1-1.441.245c-2.394,0-4.272-1.853-4.272-5.276s1.879-5.276,4.272-5.276,4.272,1.853,4.272,5.276a5.52,5.52,0,0,1-1.634,4.318l-1.4-1.847Zm31-2.471c0-4.169-2.445-6.769-5.817-6.769s-5.817,2.6-5.817,6.769,2.445,6.769,5.817,6.769S83.9,19.581,83.9,15.411Zm-1.544,0c0,3.423-1.879,5.276-4.272,5.276s-4.272-1.853-4.272-5.276,1.879-5.276,4.272-5.276S82.354,11.988,82.354,15.411Z"/>
    <path id="Path_2714" data-name="Path 2714" d="M90.573,3.279h2.368V10h.912V3.279H96.22V2.47H90.573Zm7.055-.809V10h.853V4.279h.074L100.907,10h.824l2.353-5.721h.074V10h.853V2.47h-1.089l-2.559,6.25h-.088L98.716,2.47Z"/>
  </g>
</svg>
