<svg xmlns="http://www.w3.org/2000/svg" xmlns:xlink="http://www.w3.org/1999/xlink" width="1440" height="920" viewBox="0 0 1440 920">
  <defs>
    <clipPath id="clip-UserManagement_3">
      <rect width="1440" height="920"/>
    </clipPath>
  </defs>
  <g id="UserManagement_3" data-name="UserManagement – 3" clip-path="url(#clip-UserManagement_3)">
    <rect width="1440" height="920" fill="#161616"/>
    <path id="Exclusion_1" data-name="Exclusion 1" d="M-823,1955a115.847,115.847,0,0,1-23.177-2.336,114.425,114.425,0,0,1-21.587-6.7,115.006,115.006,0,0,1-19.534-10.6,115.83,115.83,0,0,1-17.02-14.043,115.83,115.83,0,0,1-14.043-17.02,115.013,115.013,0,0,1-10.6-19.535,114.425,114.425,0,0,1-6.7-21.587A115.855,115.855,0,0,1-938,1840a115.851,115.851,0,0,1,2.336-23.176,114.43,114.43,0,0,1,6.7-21.586,115,115,0,0,1,10.6-19.534,115.829,115.829,0,0,1,14.043-17.02,115.824,115.824,0,0,1,17.02-14.042,115.012,115.012,0,0,1,19.534-10.6,114.418,114.418,0,0,1,21.587-6.7A115.847,115.847,0,0,1-823,1725a115.844,115.844,0,0,1,23.176,2.336,114.42,114.42,0,0,1,21.586,6.7,115.012,115.012,0,0,1,19.534,10.6,115.826,115.826,0,0,1,17.02,14.042,115.821,115.821,0,0,1,14.042,17.02,115.024,115.024,0,0,1,10.6,19.534,114.429,114.429,0,0,1,6.7,21.586A115.849,115.849,0,0,1-708,1840a115.852,115.852,0,0,1-2.336,23.177,114.427,114.427,0,0,1-6.7,21.587,115.012,115.012,0,0,1-10.6,19.535,115.829,115.829,0,0,1-14.042,17.02,115.831,115.831,0,0,1-17.02,14.043,115.017,115.017,0,0,1-19.534,10.6,114.425,114.425,0,0,1-21.586,6.7A115.844,115.844,0,0,1-823,1955Zm0-195a80.594,80.594,0,0,0-16.123,1.625,79.6,79.6,0,0,0-15.017,4.661,80.015,80.015,0,0,0-13.589,7.376,80.585,80.585,0,0,0-11.84,9.769,80.575,80.575,0,0,0-9.769,11.84,80,80,0,0,0-7.376,13.589,79.594,79.594,0,0,0-4.661,15.017A80.59,80.59,0,0,0-903,1840a80.593,80.593,0,0,0,1.625,16.123,79.594,79.594,0,0,0,4.661,15.017,80.007,80.007,0,0,0,7.376,13.589,80.574,80.574,0,0,0,9.769,11.84,80.566,80.566,0,0,0,11.84,9.769,80.009,80.009,0,0,0,13.589,7.376,79.6,79.6,0,0,0,15.017,4.661A80.594,80.594,0,0,0-823,1920a80.594,80.594,0,0,0,16.123-1.625,79.6,79.6,0,0,0,15.017-4.661,80.014,80.014,0,0,0,13.589-7.376,80.553,80.553,0,0,0,11.84-9.769,80.572,80.572,0,0,0,9.768-11.84,80.007,80.007,0,0,0,7.376-13.589,79.6,79.6,0,0,0,4.661-15.017A80.593,80.593,0,0,0-743,1840a80.59,80.59,0,0,0-1.625-16.123,79.6,79.6,0,0,0-4.661-15.017,80,80,0,0,0-7.376-13.589,80.574,80.574,0,0,0-9.768-11.84,80.584,80.584,0,0,0-11.84-9.769,80,80,0,0,0-13.589-7.376,79.6,79.6,0,0,0-15.017-4.661A80.594,80.594,0,0,0-823,1760Z" transform="translate(2218 -1801)"/>
    <path id="Exclusion_2" data-name="Exclusion 2" d="M-823,1955a115.847,115.847,0,0,1-23.177-2.336,114.425,114.425,0,0,1-21.587-6.7,115.006,115.006,0,0,1-19.534-10.6,115.83,115.83,0,0,1-17.02-14.043,115.83,115.83,0,0,1-14.043-17.02,115.013,115.013,0,0,1-10.6-19.535,114.425,114.425,0,0,1-6.7-21.587A115.855,115.855,0,0,1-938,1840a115.851,115.851,0,0,1,2.336-23.176,114.43,114.43,0,0,1,6.7-21.586,115,115,0,0,1,10.6-19.534,115.829,115.829,0,0,1,14.043-17.02,115.824,115.824,0,0,1,17.02-14.042,115.012,115.012,0,0,1,19.534-10.6,114.418,114.418,0,0,1,21.587-6.7A115.847,115.847,0,0,1-823,1725a115.844,115.844,0,0,1,23.176,2.336,114.42,114.42,0,0,1,21.586,6.7,115.012,115.012,0,0,1,19.534,10.6,115.826,115.826,0,0,1,17.02,14.042,115.821,115.821,0,0,1,14.042,17.02,115.024,115.024,0,0,1,10.6,19.534,114.429,114.429,0,0,1,6.7,21.586A115.849,115.849,0,0,1-708,1840a115.852,115.852,0,0,1-2.336,23.177,114.427,114.427,0,0,1-6.7,21.587,115.012,115.012,0,0,1-10.6,19.535,115.829,115.829,0,0,1-14.042,17.02,115.831,115.831,0,0,1-17.02,14.043,115.017,115.017,0,0,1-19.534,10.6,114.425,114.425,0,0,1-21.586,6.7A115.844,115.844,0,0,1-823,1955Zm0-195a80.594,80.594,0,0,0-16.123,1.625,79.6,79.6,0,0,0-15.017,4.661,80.015,80.015,0,0,0-13.589,7.376,80.585,80.585,0,0,0-11.84,9.769,80.575,80.575,0,0,0-9.769,11.84,80,80,0,0,0-7.376,13.589,79.594,79.594,0,0,0-4.661,15.017A80.59,80.59,0,0,0-903,1840a80.593,80.593,0,0,0,1.625,16.123,79.594,79.594,0,0,0,4.661,15.017,80.007,80.007,0,0,0,7.376,13.589,80.574,80.574,0,0,0,9.769,11.84,80.566,80.566,0,0,0,11.84,9.769,80.009,80.009,0,0,0,13.589,7.376,79.6,79.6,0,0,0,15.017,4.661A80.594,80.594,0,0,0-823,1920a80.594,80.594,0,0,0,16.123-1.625,79.6,79.6,0,0,0,15.017-4.661,80.014,80.014,0,0,0,13.589-7.376,80.553,80.553,0,0,0,11.84-9.769,80.572,80.572,0,0,0,9.768-11.84,80.007,80.007,0,0,0,7.376-13.589,79.6,79.6,0,0,0,4.661-15.017A80.593,80.593,0,0,0-743,1840a80.59,80.59,0,0,0-1.625-16.123,79.6,79.6,0,0,0-4.661-15.017,80,80,0,0,0-7.376-13.589,80.574,80.574,0,0,0-9.768-11.84,80.584,80.584,0,0,0-11.84-9.769,80,80,0,0,0-13.589-7.376,79.6,79.6,0,0,0-15.017-4.661A80.594,80.594,0,0,0-823,1760Z" transform="translate(1658 -871)"/>
  </g>
</svg>
